<?xml version="1.0" encoding="utf-8"?>
<!-- Generator: Adobe Illustrator 16.0.0, SVG Export Plug-In . SVG Version: 6.00 Build 0)  -->
<!DOCTYPE svg PUBLIC "-//W3C//DTD SVG 1.1//EN" "http://www.w3.org/Graphics/SVG/1.1/DTD/svg11.dtd">
<svg version="1.1" id="Layer_1" xmlns="http://www.w3.org/2000/svg" xmlns:xlink="http://www.w3.org/1999/xlink" x="0px" y="0px"
	 width="483px" height="512px" viewBox="0 0 483 512" enable-background="new 0 0 483 512" xml:space="preserve">
<g>
	<g>
		<path fill="#ECD732" d="M1.003,512.999C1.002,342.335,1.002,171.67,1.001,1.003c160.998-0.001,321.996-0.001,482.995-0.002
			c0.002,170.664,0.002,341.329,0.003,511.995C323.002,512.998,162.003,512.998,1.003,512.999z M152.233,427.398
			c0-7.55,0-14.258,0-21.358c20.056,0,39.652,0,59.454,0c0-8.97,0-17.521,0-26.692c-20.016,0-39.743,0-59.493,0
			c0-15.994,0-31.363,0-47.363c22.794,0,45.17,0,67.398,0c0-9.376,0-18.109,0-26.646c-33.132,0-65.87,0-98.558,0
			c0,49.991,0,99.584,0,149.388c34.017,0,67.745,0,101.582,0c0-9.147,0-18.013,0-27.327
			C198.985,427.398,175.717,427.398,152.233,427.398z M239.532,425.037c3.899,8.383,9.245,14.76,16.095,19.646
			c18.021,12.854,38.114,15.034,59.047,9.794c16.555-4.145,28.362-13.989,31.512-31.604c3.194-17.861-0.607-33.895-16.297-44.581
			c-8.984-6.12-19.278-10.312-28.965-15.404c-5.426-2.853-11.046-5.422-16.157-8.761c-4.844-3.164-5.908-8.398-4.665-13.788
			c1.239-5.377,5.054-8.369,10.437-9.467c7.775-1.586,14.081,0.914,19.138,6.822c1.569,1.835,2.914,3.862,4.472,5.949
			c8.337-5.372,16.236-10.462,24.941-16.071c-4.604-5.194-8.174-10.35-12.81-14.235c-12.079-10.124-26.479-11.688-41.475-9.404
			c-16.195,2.465-28.704,10.521-33.681,26.604c-5.274,17.05-2.908,33.376,11.069,45.749c6.349,5.618,14.328,9.527,21.898,13.595
			c7.74,4.158,16.033,7.283,23.806,11.389c5.52,2.915,8.781,7.862,7.9,14.396c-0.908,6.729-5.621,10.353-11.73,12.24
			c-12.874,3.977-26.399-0.64-35.072-11.832c-1.394-1.798-2.737-3.635-4.257-5.655C256.22,415.359,248.062,420.09,239.532,425.037z
			 M411.213,368.761c6.08-7.839,12.271-15.626,18.244-23.576c5.906-7.862,11.595-15.891,17.915-24.584
			c-10.744,0-20.378,0.153-30.002-0.085c-3.272-0.081-5.114,1.145-6.925,3.687c-10.13,14.23-20.627,28.203-30.568,42.562
			c-4.709,6.803-9.129,13.967-12.52,21.49c-10.223,22.681-4.501,46.476,14.598,59.069c19.255,12.697,40.01,13.492,60.051,2.516
			c28.407-15.557,30.949-57.946,5.064-75.402C435.967,366.949,423.604,365.861,411.213,368.761z"/>
		<path fill-rule="evenodd" clip-rule="evenodd" fill="#343332" d="M152.233,427.398c23.483,0,46.752,0,70.384,0
			c0,9.314,0,18.18,0,27.327c-33.837,0-67.565,0-101.582,0c0-49.804,0-99.396,0-149.388c32.688,0,65.425,0,98.558,0
			c0,8.537,0,17.271,0,26.646c-22.228,0-44.604,0-67.398,0c0,16,0,31.369,0,47.363c19.75,0,39.477,0,59.493,0
			c0,9.171,0,17.723,0,26.692c-19.802,0-39.398,0-59.454,0C152.233,413.141,152.233,419.849,152.233,427.398z"/>
		<path fill-rule="evenodd" clip-rule="evenodd" fill="#343332" d="M239.532,425.037c8.53-4.947,16.688-9.678,25.206-14.618
			c1.52,2.021,2.863,3.857,4.257,5.655c8.673,11.192,22.198,15.809,35.072,11.832c6.109-1.888,10.822-5.511,11.73-12.24
			c0.881-6.533-2.381-11.48-7.9-14.396c-7.772-4.105-16.065-7.23-23.806-11.389c-7.57-4.067-15.55-7.977-21.898-13.595
			c-13.978-12.373-16.344-28.699-11.069-45.749c4.977-16.083,17.485-24.14,33.681-26.604c14.996-2.283,29.396-0.72,41.475,9.404
			c4.636,3.886,8.206,9.041,12.81,14.235c-8.705,5.609-16.604,10.699-24.941,16.071c-1.558-2.087-2.902-4.114-4.472-5.949
			c-5.057-5.908-11.362-8.408-19.138-6.822c-5.383,1.098-9.197,4.09-10.437,9.467c-1.243,5.39-0.179,10.624,4.665,13.788
			c5.111,3.339,10.731,5.908,16.157,8.761c9.687,5.092,19.98,9.284,28.965,15.404c15.689,10.687,19.491,26.72,16.297,44.581
			c-3.149,17.614-14.957,27.459-31.512,31.604c-20.933,5.24-41.025,3.061-59.047-9.794
			C248.777,439.797,243.432,433.42,239.532,425.037z"/>
		<path fill-rule="evenodd" clip-rule="evenodd" fill="#343332" d="M411.213,368.761c12.392-2.899,24.754-1.812,35.857,5.677
			c25.885,17.456,23.343,59.846-5.064,75.402c-20.041,10.977-40.796,10.182-60.051-2.516c-19.099-12.594-24.82-36.389-14.598-59.069
			c3.391-7.523,7.811-14.688,12.52-21.49c9.941-14.359,20.438-28.332,30.568-42.562c1.811-2.542,3.652-3.768,6.925-3.687
			c9.624,0.238,19.258,0.085,30.002,0.085c-6.32,8.693-12.009,16.722-17.915,24.584
			C423.483,353.135,417.293,360.922,411.213,368.761z M413.417,430.193c11.628,0.109,20.467-8.429,20.512-19.815
			c0.044-11.304-8.896-20.243-20.255-20.251c-11.267-0.009-20.464,9.142-20.354,20.251
			C393.43,421.603,402.034,430.086,413.417,430.193z"/>
		<path fill-rule="evenodd" clip-rule="evenodd" fill="#EAD532" d="M413.417,430.193c-11.383-0.107-19.987-8.591-20.098-19.815
			c-0.109-11.109,9.088-20.26,20.354-20.251c11.358,0.008,20.299,8.947,20.255,20.251
			C433.884,421.765,425.045,430.303,413.417,430.193z"/>
	</g>
</g>
</svg>
