<?xml version="1.0" encoding="utf-8"?>
<!-- Generator: Adobe Illustrator 16.0.0, SVG Export Plug-In . SVG Version: 6.00 Build 0)  -->
<!DOCTYPE svg PUBLIC "-//W3C//DTD SVG 1.1//EN" "http://www.w3.org/Graphics/SVG/1.1/DTD/svg11.dtd">
<svg version="1.1" id="Layer_1" xmlns="http://www.w3.org/2000/svg" xmlns:xlink="http://www.w3.org/1999/xlink" x="0px" y="0px"
	 width="638px" height="142px" viewBox="0 0 638 142" enable-background="new 0 0 638 142" xml:space="preserve">
<g>
	<path fill-rule="evenodd" clip-rule="evenodd" fill="#FFFFFF" d="M199,143c0-46.393,0-92.785,0-139.526c2.565,0,4.796,0,7.595,0
		c0,6.873,0,13.764,0,20.655c0.318,0.084,0.638,0.168,0.956,0.253c0.706-1.177,1.449-2.334,2.113-3.534
		c5.463-9.881,13.85-15.901,24.656-18.766C235.244,1.837,236.108,1.366,237,1c5,0,10,0,15,0c3.774,1.209,7.689,2.099,11.299,3.684
		c12.938,5.681,20.547,16.031,24.411,29.264c3.809,13.043,3.928,26.299,0.8,39.479c-5.848,24.648-26.168,38.029-51.297,34.152
		C224.15,105.562,213.59,99.989,207,87.584c0,18.472,0,36.944,0,55.416C204.333,143,201.667,143,199,143z M206.331,52.773
		c0.68,6.801,0.92,11.632,1.68,16.38c2.986,18.656,14.052,29.767,31.345,31.726c17.878,2.025,32.669-6.109,39.252-22.597
		c6.657-16.675,6.288-33.598-1.383-49.924c-6.809-14.49-19.568-21.344-36.266-20.338c-14.405,0.867-26.359,10.228-30.846,25.131
		C208.028,40.079,207.325,47.424,206.331,52.773z"/>
	<path fill-rule="evenodd" clip-rule="evenodd" fill="#FFFFFF" d="M56,1c0.888,0.372,1.744,0.876,2.668,1.099
		c22.159,5.334,37.883,30.781,32.796,53.7c-27.154,0-54.408,0-81.62,0c-2.117,23.322,11.979,44.062,34.204,45.165
		c19.47,0.966,32.102-7.302,38.185-24.722c1.99-5.697,1.99-5.697,8.955-4.528c-2.573,12.985-8.233,23.854-20.091,30.622
		c-17.719,10.115-43.084,6.821-56.403-7.271C6.811,86.725,3.437,76.411,2.034,65.276C1.811,63.503,1.351,61.758,1,60c0-3,0-6,0-9
		c0.327-1.42,0.822-2.824,0.957-4.262C3.832,26.671,15.348,5.875,39.257,1.62C39.533,1.571,39.753,1.214,40,1
		C45.333,1,50.667,1,56,1z M9.692,48.799c25.136,0,49.879,0,74.626,0C83.824,25.033,69.039,8.158,48.852,8.004
		C26.596,7.833,10.643,24.321,9.692,48.799z"/>
	<path fill-rule="evenodd" clip-rule="evenodd" fill="#FFFFFF" d="M411,1c0.888,0.372,1.743,0.876,2.667,1.099
		c22.15,5.332,37.809,30.652,32.781,53.843c-27.243,0-54.619,0-81.967,0c-1.033,30.608,19.86,51.938,50.773,43.16
		c11.579-3.288,18.369-11.828,21.794-22.837c1.605-5.158,4.18-6.032,8.639-4.666c-0.369,15.521-13.423,31.043-30.178,34.76
		c-17.515,3.885-34.03,1.971-46.717-12.353c-10.72-12.102-13.282-27.142-12.095-42.536c0.664-8.61,2.906-17.449,6.254-25.423
		c5.544-13.204,16.071-21.307,30.349-24.137C393.903,1.791,394.436,1.312,395,1C400.333,1,405.667,1,411,1z M439.068,48.861
		c1.16-21.465-14.532-40.262-33.92-40.854c-23.074-0.705-40.416,16.757-40.312,40.854C389.583,48.861,414.331,48.861,439.068,48.861
		z"/>
	<path fill-rule="evenodd" clip-rule="evenodd" fill="#FFFFFF" d="M510,1c2.878,0.749,5.78,1.416,8.63,2.26
		c13.712,4.055,22.513,16.829,20.771,30.367c-2.073,0-4.184,0-6.298,0c-0.204-0.257-0.572-0.507-0.581-0.77
		c-0.717-20.402-18.177-26.452-36.079-24.496c-5.153,0.562-10.396,2.351-15.081,4.637c-6.125,2.99-9.261,8.52-8.987,15.508
		c0.277,7.054,4.048,12.252,10.403,14.579c7.924,2.899,16.232,4.755,24.394,6.995c6.567,1.802,13.356,2.988,19.698,5.374
		c9.477,3.564,15.086,10.609,15.997,20.999c1.004,11.452-3.291,20.025-13.394,25.774c-13.561,7.717-45.411,9.491-59.331-6.404
		c-5.87-6.704-8.627-14.38-8.887-23.435c2.481,0,4.746,0,7.345,0c1.338,11.782,7.09,20.805,18.127,25.423
		c12.637,5.288,25.504,4.394,37.798-1.312c6.967-3.233,10.837-8.988,10.853-17.111c0.017-7.999-3.705-13.703-10.832-16.349
		c-8.05-2.986-16.565-4.695-24.811-7.185c-7.761-2.344-15.758-4.279-23.064-7.661c-9.642-4.463-12.397-13.208-11.692-23.38
		c0.633-9.116,5.508-15.31,13.438-18.912C483.337,3.666,488.787,2.595,494,1C499.333,1,504.667,1,510,1z"/>
	<path fill-rule="evenodd" clip-rule="evenodd" fill="#FFFFFF" d="M606,1c2.876,0.748,5.776,1.416,8.625,2.258
		c13.695,4.048,22.457,16.74,20.798,30.358c-2.069,0-4.177,0-6.306,0c-0.194-0.229-0.58-0.471-0.588-0.724
		c-0.387-13.112-7.539-22.896-24.597-24.34c-7.708-0.652-15.938,0.699-23.434,2.862c-7.469,2.155-12.194,8.139-12.137,16.505
		c0.056,8.187,4.768,13.672,12.125,15.967c10.445,3.258,21.294,5.21,31.8,8.299c5.981,1.759,12.362,3.695,17.197,7.356
		c4.175,3.161,6.418,8.874,9.516,13.458c0,4.333,0,8.667,0,13c-5.164,13.818-16.09,19.441-29.865,21.204
		c-11.785,1.509-23.366,1.186-34.049-4.562c-11.707-6.297-17.291-16.565-17.88-30.124c2.316,0,4.548,0,6.04,0
		c2.85,5.794,4.791,12.155,8.622,17.034c8.325,10.604,20.381,12.479,32.98,11.126c4.892-0.525,9.876-1.752,14.413-3.634
		c7.445-3.087,11.92-8.678,12.104-17.255c0.183-8.444-3.826-14.249-11.342-17.017c-7.745-2.853-15.931-4.488-23.858-6.873
		c-7.914-2.38-16.077-4.312-23.533-7.74c-9.652-4.438-12.362-13.221-11.653-23.375c0.637-9.108,5.521-15.293,13.446-18.889
		C579.345,3.664,584.791,2.593,590,1C595.333,1,600.667,1,606,1z"/>
	<path fill-rule="evenodd" clip-rule="evenodd" fill="#FFFFFF" d="M308.495,3.314c2.559,0,4.687,0,7.208,0
		c0,7.112,0,14.048,0,20.983c4.416-6.857,9.697-12.446,16.828-16.087c7.077-3.612,14.592-5.394,22.961-5.12c0,2.359,0,4.568,0,7.069
		c-8.898,0.065-17.411,1.572-24.663,7.395c-10.013,8.039-14.933,18.446-14.945,31.225c-0.017,16.979-0.005,33.959-0.006,50.938
		c0,1.812,0,3.625,0,5.797c-2.523,0-4.764,0-7.383,0C308.495,71.67,308.495,37.66,308.495,3.314z"/>
	<path fill-rule="evenodd" clip-rule="evenodd" fill="#FFFFFF" d="M186.278,105.334c-7.143,2.117-11.123-0.636-14.885-6.147
		c-9.288-13.605-19.29-26.723-29.013-40.031c-0.191-0.262-0.483-0.45-1.16-1.066c-6.175,8.236-12.331,16.421-18.458,24.627
		c-4.383,5.869-9.089,11.54-12.98,17.722c-3.251,5.164-7.278,6.567-13.427,4.849c13.314-17.863,26.49-35.543,39.79-53.387
		C123.75,35.75,111.541,19.843,99.122,3.663c6.511-1.404,10.881-0.517,14.778,5.226c8.49,12.508,17.948,24.36,27.46,37.082
		c5.454-7.187,10.632-13.987,15.784-20.807c4.015-5.314,8.366-10.422,11.884-16.049c3.263-5.217,7.19-7.512,13.563-5.401
		c-0.53,0.876-1.064,1.967-1.784,2.917c-10.36,13.667-20.613,27.419-31.215,40.896c-2.695,3.426-2.426,5.603,0.09,8.879
		c11.358,14.788,22.458,29.775,33.639,44.7C184.294,102.405,185.186,103.767,186.278,105.334z"/>
</g>
</svg>
