<?xml version="1.0" encoding="utf-8"?>
<!-- Generator: Adobe Illustrator 16.0.0, SVG Export Plug-In . SVG Version: 6.00 Build 0)  -->
<!DOCTYPE svg PUBLIC "-//W3C//DTD SVG 1.1//EN" "http://www.w3.org/Graphics/SVG/1.1/DTD/svg11.dtd">
<svg version="1.1" id="Layer_1" xmlns="http://www.w3.org/2000/svg" xmlns:xlink="http://www.w3.org/1999/xlink" x="0px" y="0px"
	 width="400px" height="400px" viewBox="0 0 400 400" enable-background="new 0 0 400 400" xml:space="preserve">
<g>
	<path fill-rule="evenodd" clip-rule="evenodd" fill="#FFFFFF" d="M236.588,289.566c9.051-1.938,17.616-3.319,25.923-5.632
		c33.962-9.455,53.939-33.066,57.317-68.229c0.98-10.203,1.027-20.62,0.223-30.839c-1.062-13.459-6.99-25.256-15.58-35.614
		c-1.767-2.13-2.304-3.85-1.46-6.642c4.4-14.562,2.955-28.927-1.891-43.154c-0.946-2.777-2.623-3.917-5.199-3.337
		c-7.421,1.671-15.107,2.781-22.094,5.593c-7.814,3.145-14.912,8.036-22.465,11.889c-1.876,0.957-4.48,1.578-6.447,1.102
		c-29.044-7.029-58.019-7.003-87.065,0.015c-2.06,0.498-4.917-0.333-6.825-1.495c-12.138-7.393-24.419-14.331-38.712-16.716
		c-8.707-1.452-9.575-1.012-11.956,7.34c-3.729,13.08-4.369,26.188-0.492,39.41c0.451,1.536,0.011,3.991-1,5.197
		c-15.422,18.409-19.133,39.887-16.356,62.897c0.992,8.219,2.498,16.522,5.033,24.38c8.801,27.281,28.848,42.295,55.768,49.166
		c7.344,1.874,14.863,3.064,22.861,4.683c-6.022,6.711-9.213,14.411-10.847,22.877c-0.211,1.095-1.847,2.234-3.077,2.765
		c-20.302,8.741-39.19,2.759-50.98-16.125c-6.153-9.855-14.151-17.247-25.941-19.488c-4.071-0.774-9.177-1.678-11.081,2.569
		c-0.697,1.557,3.393,6.322,6.238,8.205c9.298,6.156,15.807,14.521,19.558,24.664c7.773,21.024,28.092,28.706,48.372,27.552
		c5.119-0.291,10.207-1.144,15.807-1.796c0.166,1.605,0.423,3.006,0.438,4.409c0.098,9.166,0.174,18.332,0.197,27.498
		c0.024,9.65-5.437,13.606-14.692,10.442c-24.618-8.415-46.581-21.418-65.551-39.198c-36.22-33.946-56.173-75.688-59.949-125.311
		C7.652,126.511,72.959,40.712,163.963,22.9C265.528,3.022,361.516,65.52,384.432,166.448
		c20.66,90.988-32.392,186.172-120.63,216.431c-10.475,3.593-15.717-0.11-15.688-11.065c0.04-15.166-0.062-30.334,0.142-45.497
		C248.436,312.8,246.208,300.127,236.588,289.566z"/>
	<path fill-rule="evenodd" clip-rule="evenodd" fill="#FFFFFF" d="M147.941,327.973c-0.805-1.963-2.143-3.784-1.706-4.467
		c0.888-1.387,2.628-2.515,4.243-3.007c0.638-0.194,1.88,1.59,2.847,2.474C152.125,324.087,150.926,325.2,147.941,327.973z"/>
	<path fill-rule="evenodd" clip-rule="evenodd" fill="#FFFFFF" d="M124.144,323.737c-1.208,0.459-2.622,1.548-3.574,1.234
		c-1.482-0.489-2.65-1.932-3.951-2.97c0.931-0.701,1.978-2.095,2.769-1.962c1.705,0.286,3.279,1.356,4.907,2.106
		C124.244,322.677,124.194,323.207,124.144,323.737z"/>
	<path fill-rule="evenodd" clip-rule="evenodd" fill="#FFFFFF" d="M107.938,319.348c-1.689-2.345-2.91-3.862-3.831-5.543
		c-0.115-0.211,1.888-1.957,2.006-1.862c1.511,1.211,2.949,2.555,4.143,4.071C110.427,316.231,109.225,317.532,107.938,319.348z"/>
	<path fill-rule="evenodd" clip-rule="evenodd" fill="#FFFFFF" d="M135.176,321.227c1.626,1.451,2.742,2.446,3.857,3.442
		c-1.152,0.905-2.273,2.472-3.466,2.529c-1.192,0.057-2.457-1.396-3.69-2.188C132.844,323.901,133.811,322.792,135.176,321.227z"/>
	<path fill-rule="evenodd" clip-rule="evenodd" fill="#FFFFFF" d="M98.395,308.378c-1.428-2.289-2.512-3.639-3.069-5.178
		c-0.151-0.418,1.286-1.411,1.994-2.141c1.101,1.306,2.381,2.513,3.187,3.98C100.729,305.446,99.541,306.627,98.395,308.378z"/>
</g>
</svg>
