<?xml version="1.0" encoding="utf-8"?>
<!-- Generator: Adobe Illustrator 16.0.0, SVG Export Plug-In . SVG Version: 6.00 Build 0)  -->
<!DOCTYPE svg PUBLIC "-//W3C//DTD SVG 1.1//EN" "http://www.w3.org/Graphics/SVG/1.1/DTD/svg11.dtd">
<svg version="1.1" id="Layer_1" xmlns="http://www.w3.org/2000/svg" xmlns:xlink="http://www.w3.org/1999/xlink" x="0px" y="0px"
	 width="563px" height="500px" viewBox="0 0 563 500" enable-background="new 0 0 563 500" xml:space="preserve">
<path fill="#02D7FE" d="M563,247c0,2.333,0,4.667,0,7c-0.302,0.357-0.814,0.684-0.874,1.078
	c-2.565,17.038-12.087,30.024-24.31,41.326c-19.002,17.57-41.629,29.083-65.464,38.433c-8.627,3.384-17.459,6.248-26.368,9.409
	c1.541,7.812,3.241,15.41,4.517,23.079c4.621,27.785,6.405,55.655-0.658,83.267c-6.239,24.39-18.222,43.984-45.579,48.997
	c-0.109,0.02-0.177,0.269-0.264,0.411c-6.333,0-12.667,0-19,0c-0.352-0.306-0.668-0.819-1.062-0.888
	c-23.665-4.131-44.368-14.979-63.462-28.92c-13.147-9.599-25.532-20.242-38.417-30.546c-5.743,5.011-11.857,10.627-18.267,15.884
	c-21.248,17.425-44.024,32.248-70.643,40.236c-5.633,1.69-11.429,2.837-17.15,4.233c-5.667,0-11.333,0-17,0
	c-1.652-0.59-3.265-1.355-4.963-1.74c-10.08-2.283-18.5-7.306-25.26-15.106c-9.455-10.909-14.098-23.988-16.786-37.876
	c-4.92-25.421-2.913-50.744,1.482-75.988c1.387-7.967,3.163-15.867,4.791-23.946c-1.829-0.576-3.237-1.019-4.645-1.465
	c-30.025-9.512-58.673-21.787-83.092-42.262c-12.142-10.181-22.361-21.927-27.445-37.338C1.863,260.582,1.018,256.763,0,253
	c0-2.333,0-4.667,0-7c0.958-3.435,1.802-6.905,2.892-10.297c5.724-17.804,18.195-30.362,32.651-41.187
	c23.089-17.29,49.374-27.985,76.698-36.434c2.162-0.668,4.287-1.458,5.077-1.728c-2.671-21.08-5.955-41.287-7.605-61.627
	c-1.667-20.551,0.385-40.965,8.413-60.301c7.538-18.156,20.255-30.206,40.361-33.203C160.018,0.996,161.497,0.417,163,0c2,0,4,0,6,0
	c4.799,0.869,9.627,1.607,14.394,2.63c23.223,4.981,43.584,16.151,62.501,29.968c12.444,9.089,24.166,19.167,36.499,29.032
	c1.48-1.384,3.273-3.093,5.103-4.762c22.745-20.763,46.972-39.345,76.228-50.115C371.58,3.861,379.896,2.217,388,0c5,0,10,0,15,0
	c6.721,2.573,14.014,4.211,20.05,7.903c15.172,9.281,21.958,24.507,26.017,41.023c6.804,27.688,4.886,55.503,0.379,83.27
	c-1.317,8.12-3.095,16.164-4.677,24.326c2.149,0.653,3.729,1.125,5.303,1.614c24.219,7.531,47.644,16.875,68.945,30.874
	c15.737,10.342,30.079,22.234,38.241,39.769C559.922,234.504,561.127,240.907,563,247z M281.809,340.913
	c15.938-0.632,31.762-1.158,47.566-2.02c1.914-0.104,4.534-1.544,5.472-3.154c15.996-27.457,31.824-55.012,47.49-82.658
	c0.922-1.627,0.972-4.676,0.056-6.278c-15.614-27.295-31.374-54.507-47.373-81.576c-1.17-1.979-4.411-3.862-6.705-3.88
	c-31.306-0.247-62.614-0.222-93.921-0.004c-2.052,0.015-4.852,1.624-6.017,3.357c-17.669,26.281-33.649,53.561-47.333,82.137
	c-0.9,1.881-0.873,4.956,0.038,6.841c13.849,28.681,29.916,56.101,47.78,82.457c1,1.475,3.327,2.795,5.102,2.884
	C249.938,339.817,265.928,340.324,281.809,340.913z M124.481,322.099c0.514-0.816,0.85-1.198,1.022-1.644
	c8.667-22.493,17.37-44.973,25.872-67.528c0.662-1.755,0.427-4.257-0.292-6.052c-3.399-8.492-7.366-16.762-10.654-25.294
	c-5.312-13.786-10.251-27.716-15.45-41.862c-1.187,0.238-2.513,0.342-3.725,0.771c-11.282,3.997-22.741,7.581-33.769,12.193
	c-18.534,7.75-36.019,17.412-50.132,32.112c-16.672,17.365-16.718,32.074-0.407,49.822c1.015,1.104,2.04,2.203,3.127,3.234
	C64.054,300.594,93.656,312.483,124.481,322.099z M265.605,422.434c-0.563-1.167-0.655-1.503-0.855-1.75
	c-15.276-18.886-30.531-37.791-45.921-56.584c-0.975-1.189-2.951-1.959-4.559-2.166c-13.201-1.696-26.455-2.999-39.633-4.85
	c-10.819-1.519-21.556-3.623-32.422-5.484c-0.382,0.746-0.808,1.29-0.954,1.9c-5.03,21.113-8.509,42.452-8.038,64.221
	c0.314,14.527,2.024,28.864,8.614,42.19c5.676,11.479,14.991,16.5,27.528,15.855c3.475-0.179,6.974-0.671,10.374-1.418
	c22.624-4.973,41.903-16.687,60.022-30.471C248.727,437.058,257.132,429.502,265.605,422.434z M422.945,350.521
	c-1.43,0.074-2.073,0.052-2.699,0.147c-23.49,3.59-46.99,7.129-70.452,10.898c-1.988,0.319-4.226,1.788-5.508,3.393
	c-14.43,18.06-28.695,36.249-42.998,54.41c-0.576,0.732-1.082,1.521-1.744,2.459c13.581,13.038,27.73,24.85,43.426,34.708
	c14.305,8.984,29.254,16.466,46.226,19.053c15.227,2.322,25.581-2.808,32.187-16.689c2.407-5.06,4.279-10.485,5.585-15.938
	c4.8-20.038,4.126-40.315,1.489-60.537C427.065,371.761,424.82,361.209,422.945,350.521z M263.97,78.654
	c-0.189-0.2-1.034-1.203-1.988-2.088c-13.962-12.94-28.798-24.749-45.211-34.465c-13.1-7.754-26.784-14.086-41.941-16.733
	c-17.658-3.083-28.638,2.84-34.992,19.615c-2.22,5.861-3.732,12.089-4.771,18.283c-3.287,19.61-1.695,39.204,1.314,58.685
	c1.458,9.44,3.681,18.764,5.346,27.078c25.009-3.455,49.059-6.752,73.09-10.172c1.292-0.184,2.773-1.139,3.599-2.184
	C233.574,117.474,248.646,98.205,263.97,78.654z M299.45,78.401c15.45,19.884,30.335,39.09,45.329,58.21
	c0.891,1.136,2.58,2.054,4.024,2.286c22.826,3.662,45.68,7.147,68.504,10.819c2.798,0.45,4.109,0.254,4.835-2.945
	c5.476-24.167,8.585-48.554,6.693-73.351c-0.967-12.671-3.379-25.073-9.988-36.262c-5.217-8.83-12.979-13.193-23.167-12.921
	c-3.968,0.105-8.02,0.531-11.857,1.505C349.814,34.369,324.01,56.051,299.45,78.401z M438.521,179.655
	c-0.623,1.097-0.923,1.501-1.1,1.953c-8.514,21.838-17.083,43.655-25.403,65.565c-0.694,1.828-0.22,4.502,0.573,6.429
	c5.882,14.305,12.139,28.456,17.954,42.786c3.237,7.979,5.855,16.209,8.795,24.444c21.255-6.459,41.781-13.962,60.126-25.978
	c10.215-6.69,20.204-14.322,28.506-23.203c14.418-15.425,13.655-28.812-0.415-44.565c-0.776-0.869-1.584-1.715-2.423-2.523
	C500.753,201.061,470.153,189.651,438.521,179.655z M363.775,336.317c17.814-3.043,34.796-5.942,52.728-9.005
	c-6.511-17.009-12.59-32.887-19.015-49.67C386.023,297.595,375.279,316.296,363.775,336.317z M315.648,364.321
	c-22.876,0-44.399,0-67.267,0c11.604,13.867,22.586,26.99,34.121,40.774C293.822,391.172,304.396,378.163,315.648,364.321z
	 M165.975,278.554c-6.111,16.713-11.965,32.722-18.22,49.828c17.77,2.85,34.374,5.513,51.963,8.334
	C188.185,316.837,177.368,298.192,165.975,278.554z M281.828,95.816c-11.423,13.677-22.128,26.496-33.54,40.16
	c22.698,0,44.002,0,66.725,0C303.76,122.357,293.217,109.6,281.828,95.816z M397.261,221.914
	c6.065-16.348,11.891-32.05,18.051-48.653c-17.823-3.089-34.237-5.934-51.479-8.921
	C375.192,183.905,385.924,202.388,397.261,221.914z M166.189,221.448c10.946-18.948,21.693-37.55,33.036-57.184
	c-17.394,2.998-33.825,5.83-50.866,8.768c3.261,9.413,6.017,17.764,9.051,26.013C160.158,206.519,163.209,213.88,166.189,221.448z"
	/>
<path fill-rule="evenodd" clip-rule="evenodd" fill="#01D7FE" d="M280.949,299.205c-27.765-0.097-50.088-22.618-49.939-50.383
	c0.146-27.413,22.669-49.806,50.103-49.813c27.749-0.007,50.15,22.457,50.093,50.231
	C331.148,277.141,308.857,299.303,280.949,299.205z"/>
</svg>
