<?xml version="1.0" encoding="utf-8"?>
<!-- Generator: Adobe Illustrator 16.0.0, SVG Export Plug-In . SVG Version: 6.00 Build 0)  -->
<!DOCTYPE svg PUBLIC "-//W3C//DTD SVG 1.1//EN" "http://www.w3.org/Graphics/SVG/1.1/DTD/svg11.dtd">
<svg version="1.1" id="Layer_1" xmlns="http://www.w3.org/2000/svg" xmlns:xlink="http://www.w3.org/1999/xlink" x="0px" y="0px"
	 width="400px" height="315px" viewBox="0 42.5 400 315" enable-background="new 0 42.5 400 315" xml:space="preserve">
<path fill="#CD6799" d="M344.213,222.417c-13.946,0.073-26.067,3.432-36.217,8.397c-3.725-7.375-7.448-13.947-8.105-18.766
	c-0.73-5.623-1.606-9.055-0.73-15.773c0.877-6.718,4.819-16.283,4.746-17.013c-0.072-0.73-0.876-4.162-8.908-4.235
	c-8.032-0.073-14.969,1.534-15.771,3.651c-0.804,2.118-2.338,6.937-3.359,11.902c-1.388,7.302-16.064,33.37-24.461,47.025
	c-2.702-5.331-5.039-10.004-5.551-13.729c-0.729-5.622-1.605-9.055-0.729-15.771c0.876-6.719,4.819-16.284,4.746-17.014
	c-0.073-0.73-0.876-4.162-8.908-4.235c-8.032-0.073-14.97,1.534-15.772,3.651c-0.803,2.118-1.68,7.083-3.359,11.903
	c-1.679,4.818-21.175,48.338-26.286,59.584c-2.629,5.768-4.893,10.368-6.499,13.508l0,0c0,0-0.073,0.219-0.292,0.584
	c-1.387,2.702-2.19,4.162-2.19,4.162s0,0,0,0.073c-1.095,1.972-2.264,3.797-2.848,3.797c-0.438,0-1.242-5.257,0.146-12.413
	c2.92-15.115,9.857-38.627,9.785-39.431c0-0.438,1.314-4.526-4.527-6.645c-5.695-2.118-7.74,1.388-8.251,1.388
	c-0.511,0-0.876,1.24-0.876,1.24s6.353-26.432-12.121-26.432c-11.537,0-27.456,12.632-35.341,24.022
	c-4.965,2.702-15.553,8.471-26.871,14.677c-4.309,2.41-8.763,4.82-12.925,7.083c-0.292-0.292-0.584-0.657-0.876-0.949
	c-22.344-23.877-63.673-40.745-61.92-72.8c0.657-11.684,4.673-42.352,79.372-79.591c61.482-30.303,110.405-21.906,118.875-3.286
	c12.121,26.579-26.214,75.94-89.741,83.096c-24.243,2.702-36.948-6.645-40.161-10.149c-3.359-3.651-3.87-3.87-5.111-3.14
	c-2.045,1.095-0.73,4.381,0,6.28c1.898,4.965,9.711,13.728,22.928,18.036c11.683,3.797,40.088,5.915,74.48-7.375
	c38.481-14.896,68.565-56.298,59.73-90.982c-8.836-35.195-67.251-46.806-122.527-27.163c-32.858,11.683-68.492,30.084-94.122,54.034
	c-30.449,28.478-35.269,53.231-33.297,63.6c7.083,36.802,57.831,60.753,78.13,78.496c-1.022,0.584-1.971,1.095-2.774,1.533
	c-10.15,5.038-48.85,25.265-58.489,46.659c-10.953,24.242,1.752,41.621,10.15,43.958c26.068,7.229,52.866-5.769,67.251-27.236
	c14.385-21.468,12.632-49.36,5.987-62.14c-0.073-0.146-0.146-0.292-0.292-0.438c2.629-1.533,5.331-3.141,7.959-4.674
	c5.185-3.066,10.296-5.914,14.677-8.251c-2.482,6.791-4.308,14.896-5.184,26.579c-1.095,13.728,4.527,31.545,11.902,38.555
	c3.286,3.066,7.156,3.139,9.638,3.139c8.616,0,12.486-7.155,16.794-15.625c5.257-10.369,10.004-22.418,10.004-22.418
	s-5.915,32.567,10.149,32.567c5.842,0,11.756-7.595,14.385-11.464c0,0.072,0,0.072,0,0.072s0.146-0.219,0.438-0.73
	c0.584-0.949,0.949-1.533,0.949-1.533s0-0.072,0-0.146c2.336-4.089,7.594-13.362,15.406-28.77
	c10.077-19.861,19.789-44.688,19.789-44.688s0.876,6.061,3.87,16.138c1.753,5.915,5.403,12.413,8.324,18.692
	c-2.337,3.287-3.798,5.111-3.798,5.111s0,0,0.074,0.074c-1.898,2.482-3.943,5.184-6.207,7.812
	c-7.959,9.492-17.451,20.373-18.766,23.512c-1.534,3.725-1.169,6.426,1.752,8.617c2.117,1.605,5.914,1.825,9.785,1.605
	c7.155-0.511,12.193-2.264,14.676-3.358c3.871-1.388,8.398-3.505,12.633-6.645c7.812-5.769,12.56-14.021,12.121-24.899
	c-0.219-5.988-2.19-11.976-4.6-17.598c0.729-1.022,1.387-2.045,2.117-3.067c12.34-18.036,21.906-37.823,21.906-37.823
	s0.875,6.061,3.869,16.137c1.461,5.111,4.455,10.66,7.083,16.064c-11.61,9.42-18.766,20.372-21.321,27.528
	c-4.601,13.289-1.022,19.276,5.769,20.664c3.066,0.657,7.448-0.804,10.661-2.19c4.089-1.314,8.908-3.578,13.508-6.938
	c7.813-5.768,15.334-13.8,14.896-24.68c-0.22-4.965-1.533-9.857-3.359-14.604c9.857-4.09,22.563-6.354,38.773-4.455
	c34.757,4.09,41.621,25.776,40.307,34.904c-1.314,9.127-8.616,14.092-11.025,15.625c-2.41,1.533-3.213,2.045-2.994,3.141
	c0.292,1.605,1.46,1.533,3.505,1.241c2.848-0.511,18.255-7.375,18.912-24.169C400.803,245.637,380.357,222.197,344.213,222.417z
	 M76.086,312.814c-11.537,12.56-27.601,17.307-34.538,13.29c-7.448-4.308-4.527-22.854,9.639-36.145
	c8.616-8.105,19.715-15.626,27.09-20.227c1.679-1.022,4.162-2.482,7.156-4.308c0.511-0.293,0.803-0.438,0.803-0.438l0,0
	c0.584-0.365,1.168-0.73,1.752-1.095C93.173,282.877,88.208,299.599,76.086,312.814z M160.059,255.714
	c-4.016,9.784-12.414,34.83-17.525,33.442c-4.381-1.168-7.083-20.152-0.876-38.919c3.14-9.419,9.784-20.665,13.654-25.046
	c6.28-7.01,13.217-9.346,14.896-6.498C172.326,222.417,162.541,249.58,160.059,255.714z M229.354,288.865
	c-1.68,0.875-3.285,1.46-4.016,1.021c-0.512-0.292,0.73-1.461,0.73-1.461s8.689-9.346,12.121-13.581
	c1.971-2.482,4.308-5.403,6.791-8.688c0,0.291,0,0.656,0,0.949C244.98,278.277,234.173,285.798,229.354,288.865z M282.804,276.67
	c-1.241-0.876-1.022-3.797,3.14-12.924c1.607-3.578,5.404-9.566,11.902-15.334c0.73,2.336,1.242,4.6,1.168,6.718
	C298.941,269.223,288.865,274.48,282.804,276.67z"/>
</svg>
