<?xml version="1.0" encoding="utf-8"?>
<!-- Generator: Adobe Illustrator 21.1.0, SVG Export Plug-In . SVG Version: 6.00 Build 0)  -->
<svg version="1.1" id="Layer_1" xmlns="http://www.w3.org/2000/svg" xmlns:xlink="http://www.w3.org/1999/xlink" x="0px" y="0px"
	 viewBox="0 0 2500 2500" style="enable-background:new 0 0 2500 2500;" xml:space="preserve">
<path style="fill:#FFFFFF;" d="M2467.442,1222.676c-5.811-407.559-234.307-803.486-584.307-1012.793
	C1605.234,38.369,1256.973-8.721,941.865,72.09l0,0.01c-475,118.018-851.758,548.242-900,1036.035
	c-59.893,461.631,173.252,942.441,572.666,1180.82c391.865,245.352,922.676,235.459,1306.396-22.676
	C2265.694,2042.441,2480.234,1634.297,2467.442,1222.676z M1318.018,2286.631c-553.486,55.234-1088.369-413.965-1104.062-969.766
	c-41.279-450,255.234-896.514,679.648-1045.352c595.352-238.379,1325.586,201.738,1387.207,840.117
	C2376.748,1686.045,1900,2269.766,1318.018,2286.631z"/>
<path style="fill:#FFFFFF;" d="M953.486,1188.379c266.865-218.027,527.91-443.613,800.586-655.244
	c-143.027,219.775-290.117,436.631-433.145,656.396c-122.676,0.586-245.342,0.586-367.441-1.162V1188.379z M1179.072,1309.883
	c123.252,0,245.928,0,368.604,1.748c-268.604,216.855-528.486,444.18-801.748,655.234
	C888.955,1747.09,1036.045,1529.658,1179.072,1309.883L1179.072,1309.883z"/>
</svg>
