<?xml version="1.0" encoding="utf-8"?>
<!-- Generator: Adobe Illustrator 21.1.0, SVG Export Plug-In . SVG Version: 6.00 Build 0)  -->
<svg version="1.1" id="Layer_1" xmlns="http://www.w3.org/2000/svg" xmlns:xlink="http://www.w3.org/1999/xlink" x="0px" y="0px"
	 viewBox="0 0 200 200" style="enable-background:new 0 0 200 200;" xml:space="preserve">
<title>Artboard 1</title>
<path style="fill:#CB3349;" d="M47.78,86.57c0,0-31.12,21.9-32.33,30.25l2.33-0.48c0,0,37.22-24.7,66.8-27.71l0.67-3.75L47.78,86.57
	z"/>
<path style="fill:#CB3349;" d="M96.63,83.44l-24.51,17.39l1.32,1.06c1-0.81,43.54-13.8,43.54-13.8l9-5.62
	C119.93,83.22,96.63,83.44,96.63,83.44z"/>
<path style="fill:#CB3349;" d="M117.93,104.47c17.41,0,43.5-17,43.5-17L153,85.82c-0.42,0.42-13.6-0.46-13.6-0.46l-6.26-1.74l-15,17
	l-1.22,3C118,103.17,117.93,104.47,117.93,104.47z"/>
<path style="fill:#CB3349;" d="M174.73,158.83l-5.38,1.51l-24.84-0.54L129,147.72l-18.78,4.7l-21.73-1.88l-12.2,13.3l-22.83,6.82
	l-11.4-3.53l-0.57-0.49l5.12,12.53c0,0,11.59,12.41,18.06,13.83s18.17-0.1,26.93-1.46s15.76-4.49,18.58-9.6
	c1.266-2.097,2.35-4.298,3.24-6.58c0,0,8.35,11.8,15.56,13.15c7.21,1.35,28.6-6,28.6-6s13.05-3.55,15.35-8s8.35-19.21,8.35-19.21
	L174.73,158.83z M44.46,169l-0.36-0.17l-2-1.74L44.46,169z"/>
<path style="fill:#F4EDAE;" d="M195.83,70.08c-0.05-0.67-0.13-1.34-0.21-2c-0.06-0.47-0.13-1-0.21-1.42
	c-1.876-1.531-3.884-2.893-6-4.07c-2.323-1.34-4.713-2.562-7.16-3.66c-2.44-1.15-4.94-2.19-7.46-3.21c-1.26-0.507-2.527-1-3.8-1.48
	c-1.27-0.49-2.55-1-3.84-1.42c2.7,0.45,5.37,1.06,8,1.74c1.72,0.45,3.44,0.94,5.14,1.48c-12.05-31.67-41-52.28-72.62-52.28
	S47.09,24.37,35,56c1.7-0.53,3.42-1,5.14-1.48c2.65-0.68,5.32-1.29,8-1.74c-1.29,0.47-2.57,0.93-3.84,1.42s-2.54,1-3.8,1.48
	c-2.52,1-5,2.06-7.46,3.21c-2.447,1.099-4.836,2.321-7.16,3.66c-2.115,1.178-4.123,2.54-6,4.07c-0.08,0.46-0.15,1-0.21,1.42
	c-0.08,0.67-0.16,1.34-0.21,2c-0.12,1.35-0.17,2.7-0.18,4.06c-0.019,2.712,0.148,5.421,0.5,8.11c0.343,2.7,0.875,5.374,1.59,8
	c0.36,1.29,0.77,2.57,1.24,3.81c0.24,0.62,0.5,1.22,0.76,1.82c0.13,0.29,0.27,0.58,0.41,0.86L24,97l0.61,0.3l1.2,0.57L28.19,99
	l0.12-0.11l-2.24-8.51c0.47-0.13,4.72-1.22,12-2.62c-0.59-0.11-1.19-0.24-1.77-0.38c-1.668-0.404-3.306-0.925-4.9-1.56
	c-0.791-0.326-1.562-0.696-2.31-1.11c-0.745-0.406-1.421-0.929-2-1.55c8,2.62,24.64,1.43,39.4-0.09
	c13.496-1.456,27.056-2.23,40.63-2.32c13.576,0.066,27.14,0.817,40.64,2.25c14.77,1.53,31.37,2.71,39.4,0.09
	c-0.579,0.621-1.254,1.145-2,1.55c-0.748,0.414-1.52,0.784-2.31,1.11c-1.595,0.635-3.232,1.156-4.9,1.56l-0.74,0.17
	c8,1.49,12.69,2.7,13.19,2.83l-2.14,8.11l1.29-0.57l1.2-0.57l0.61-0.3l0.17-0.33c0.15-0.28,0.29-0.57,0.42-0.86
	c0.27-0.59,0.53-1.2,0.76-1.82c0.47-1.24,0.88-2.51,1.24-3.81c0.719-2.626,1.253-5.299,1.6-8c0.352-2.689,0.519-5.398,0.5-8.11
	C196,72.79,196,71.43,195.83,70.08z"/>
<path style="fill:#E6CCAD;" d="M116.79,182.66c-1.06,0.16-2.13,0.29-3.19,0.38c-0.68,0-1.4,0.1-2.06,0.1h-0.24
	c0.82-1.84,1.45-3.26,1.92-4.34C114.18,179.88,115.41,181.22,116.79,182.66z"/>
<path style="fill:#E6CCAD;" d="M119.1,185c3.17,3.214,7.398,5.168,11.9,5.5c-6.446,2.602-13.264,4.165-20.2,4.63
	c-5.55,0.335-11.117-0.264-16.47-1.77c0.46-0.08,0.79-0.14,1.19-0.19s10.21-1.33,14.6-7.87h1.49c0.73,0,1.39-0.06,2.09-0.09
	c1.639-0.141,3.268-0.375,4.88-0.7L119.1,185z"/>
<path style="fill:#656C67;" d="M128.46,87.07l-1,1.34c-2.419,3.035-5.038,5.905-7.84,8.59c-3.693-0.113-7.493-0.173-11.4-0.18
	c-6.46,0-12.65,0.17-18.54,0.46c9.373-3.941,19.128-6.904,29.11-8.84C121.95,87.88,125.18,87.4,128.46,87.07z"/>
<path style="fill:#656C67;" d="M79.82,90.79c-3.409,2.393-6.611,5.069-9.57,8c-8.32,0.83-15.58,1.84-21.57,2.81
	C58.669,96.957,69.102,93.335,79.82,90.79z"/>
<path style="fill:#656C67;" d="M181.48,108l-3.38,23.68L161.88,143l-42.28-4.8l-6.36-21c-0.142-0.522-0.576-0.913-1.11-1
	c-2.716-0.509-5.504-0.509-8.22,0c-0.533,0.089-0.966,0.479-1.11,1l-6.21,20.45l-42,9.36l-16.71-11.64L34.6,108.8l2.18-1.21
	c1.033-0.22,2.19-0.453,3.47-0.7L43.34,132c0.041,0.403,0.257,0.769,0.59,1l11.46,8c0.322,0.219,0.72,0.295,1.1,0.21l34.57-7.69
	c0.118-0.026,0.232-0.066,0.34-0.12c0.329-0.174,0.574-0.473,0.68-0.83L98.31,112c3.166-0.833,6.417-1.303,9.69-1.4
	c3.277,0.106,6.532,0.586,9.7,1.43l6.22,20.5c0.154,0.542,0.62,0.936,1.18,1l34.57,3.93c0.352,0.05,0.709-0.036,1-0.24l11.47-8
	c0.313-0.225,0.519-0.568,0.57-0.95l3.06-21.42C178,107.24,180,107.64,181.48,108z"/>
<path style="fill:#656C67;" d="M185.75,93.12l-3,11.29c-12.427-2.649-24.999-4.569-37.65-5.75c6.185-2.57,12.07-5.809,17.55-9.66
	C173.48,90.5,181.43,92.14,185.75,93.12z"/>
<path style="fill:#E5CAA3;" d="M63.84,128.44c2.36-1.27,5-1.08,9.19-1.08c0.45,0,0.91,0,1.39,0h1.26c4.3,0,7.87,0.37,7.81-6.38
	s-3.06-12.2-7.35-12.15s-8.45,5.56-8.2,12.31c-0.004,1.348,0.248,2.685,0.74,3.94C64.93,126,63.9,128.3,63.84,128.44z M115.5,100.69
	c-1.663,1.356-3.417,2.596-5.25,3.71l-6.1,3.68c-2.475,0.314-4.925,0.805-7.33,1.47c-0.113,0.031-0.221,0.078-0.32,0.14
	c-0.3,0.176-0.525,0.458-0.63,0.79l-6.21,20.46l-33.19,7.38L46,131l-3-24.63c5.92-1.09,13.86-2.37,23.4-3.37c-1,1.22-2,2.51-3,3.86
	L57.77,115l8.23-5.56c4.51-2.86,9.185-5.451,14-7.76c8.58-0.64,18.05-1.06,28.19-1.06C110.69,100.62,113.11,100.65,115.5,100.69z"/>
<path style="fill:#E5CAA3;" d="M151.84,125.68c0-0.16-0.95-2.87-4.94-2.4c0.527-1.337,0.706-2.785,0.52-4.21
	c-0.53-6.73-4.44-12.08-8.74-11.93s-7,5.73-6.8,12.48s3.84,6.69,8.13,6.54C145.78,126.05,148.95,124.28,151.84,125.68z M173,106.29
	l-3,20.94l-10.54,7.38l-33.14-3.77l-6.18-20.36c-0.14-0.447-0.492-0.795-0.94-0.93c-2.835-0.785-5.732-1.324-8.66-1.61l0.79-0.05
	c8.776-1.18,17.409-3.244,25.77-6.16C149.137,102.635,161.119,104.157,173,106.29z"/>
<path style="fill:#C7B39A;" d="M63.84,128.44c2.36-1.27,5-1.08,9.19-1.08c0.45,0,0.91,0,1.39,0h1.26c4.3,0,7.87,0.37,7.81-6.38
	s-3.06-12.2-7.35-12.15s-8.45,5.56-8.2,12.31c-0.004,1.348,0.248,2.685,0.74,3.94C64.93,126,63.9,128.3,63.84,128.44z M115.5,100.69
	c-1.663,1.356-3.417,2.596-5.25,3.71l-6.1,3.68c-2.475,0.314-4.925,0.805-7.33,1.47c-0.113,0.031-0.221,0.078-0.32,0.14
	c-0.3,0.176-0.525,0.458-0.63,0.79l-6.21,20.46l-33.19,7.38L46,131l-3-24.63c5.92-1.09,13.86-2.37,23.4-3.37c-1,1.22-2,2.51-3,3.86
	L57.77,115l8.23-5.56c4.51-2.86,9.185-5.451,14-7.76c8.58-0.64,18.05-1.06,28.19-1.06C110.69,100.62,113.11,100.65,115.5,100.69z"/>
<path style="fill:#C7B39A;" d="M151.84,125.68c0-0.16-0.95-2.87-4.94-2.4c0.527-1.337,0.706-2.785,0.52-4.21
	c-0.53-6.73-4.44-12.08-8.74-11.93s-7,5.73-6.8,12.48s3.84,6.69,8.13,6.54C145.78,126.05,148.95,124.28,151.84,125.68z M173,106.29
	l-3,20.94l-10.54,7.38l-33.14-3.77l-6.18-20.36c-0.14-0.447-0.492-0.795-0.94-0.93c-2.835-0.785-5.732-1.324-8.66-1.61l0.79-0.05
	c8.776-1.18,17.409-3.244,25.77-6.16C149.137,102.635,161.119,104.157,173,106.29z"/>
<path style="fill:#E6CCAD;" d="M187.48,115.5c0.51,0.42,0.91,1.5,0.46,6.56c-0.56,6.19-3.16,17-4.77,18.8
	c-2.609,0.219-5.236,0.016-7.78-0.6c0.39-1.56,0.51-2.31,0.82-3.9l4-2.78c0.315-0.22,0.525-0.56,0.58-0.94l2.78-19.47
	C184.919,113.868,186.224,114.646,187.48,115.5z"/>
<path style="fill:#E6CCAD;" d="M40.94,140.91c0.2,0.7,0.41,1.41,0.62,2.1c-2.14,0.63-6.49,1.23-8.47,0.89
	c-1.63-1.65-4.68-13-5.34-19c-0.54-4.87-0.16-5.92,0.33-6.33c1.473-0.997,3.006-1.902,4.59-2.71l2.52,20.45
	c0.039,0.404,0.255,0.771,0.59,1L40.94,140.91z"/>
<path style="fill:#E6CCAD;" d="M121.35,141.19l-0.15,1.3c-3.422,2.843-7.586,4.647-12,5.2c-7.37,0.95-13.17-3.58-13.17-3.58
	c0.324,1.56,1.112,2.985,2.26,4.09c-2.094-0.255-4.201-0.385-6.31-0.39c-0.8,0-1.62,0-2.4,0.06c-4.54,0.24-10.92,7.1-15.41,14
	c-2.2,0.7-9.09,2.88-17.06,5.24c-4.808-6.751-8.667-14.13-11.47-21.93l0,0c-0.15-0.42-0.3-0.84-0.44-1.27l1.91,1.34l0,0l4.73,3.31
	l1.58,1.1c0.232,0.162,0.507,0.25,0.79,0.25c0.103,0.01,0.207,0.01,0.31,0L98,140.22c0.478-0.117,0.858-0.479,1-0.95l6.19-20.39
	c1.865-0.293,3.765-0.293,5.63,0l6.37,21c0.151,0.54,0.613,0.935,1.17,1L121.35,141.19z"/>
<path style="fill:#E6CCAD;" d="M170.93,140.07l1.4-1c-0.23,1-0.48,1.94-0.75,2.9c-1.762,5.746-4.038,11.322-6.8,16.66
	c-0.57,0-1.16,0.06-1.8,0.06c-2,0-4-0.17-6.21-0.37c-3.87-0.35-10-1.06-11.95-1.28c-1.67-1.33-7.38-5.87-12.14-9.62l-0.51-0.42
	c-0.984-0.987-2.327-1.532-3.72-1.51c-1.75,0-4.31,0.64-10.49,2.51c1.84-1.262,3.024-3.278,3.23-5.5l0.15-1.3l40.75,4.63
	c0.352,0.049,0.709-0.037,1-0.24l4.09-2.87L170.93,140.07z"/>
<path style="fill:#EBD599;" d="M140.94,54.34c0.234,5.498-0.321,11-1.65,16.34c-0.062,0.229-0.062,0.471,0,0.7
	c-2.15-0.23-4.3-0.42-6.45-0.59c1.756-3.891,2.79-8.069,3.05-12.33C137.651,57.184,139.337,55.809,140.94,54.34z"/>
<path style="fill:#EBD599;" d="M79.46,58.46c0.244,4.255,1.26,8.43,3,12.32c-2.147,0.173-4.293,0.373-6.44,0.6
	c0.061-0.226,0.061-0.464,0-0.69c-1.326-5.344-1.882-10.849-1.65-16.35C75.984,55.812,77.684,57.188,79.46,58.46z"/>
<path style="fill:#2D3136;" d="M151.84,125.68c-2.89-1.4-6.06,0.38-11.83,0.48c-4.29,0.15-7.9,0.2-8.13-6.54s2.51-12.33,6.8-12.48
	s8.21,5.2,8.74,11.93c0.186,1.425,0.007,2.873-0.52,4.21C150.89,122.8,151.79,125.51,151.84,125.68z M138.35,115.8
	c1.209-0.022,2.172-1.021,2.149-2.23c-0.022-1.209-1.021-2.172-2.23-2.149c-1.209,0.022-2.171,1.02-2.149,2.229
	C136.147,114.857,137.143,115.817,138.35,115.8L138.35,115.8z"/>
<ellipse transform="matrix(0.9998 -0.02 0.02 0.9998 -2.2393 2.7924)" style="fill:#EDF6FA;" cx="138.512" cy="113.374" rx="2.19" ry="2.19"/>
<path style="fill:#2D3136;" d="M83.48,121c0.06,6.75-3.51,6.34-7.81,6.38h-1.26c-0.48,0-0.94,0-1.39,0c-4.17,0-6.83-0.19-9.19,1.08
	c0.06-0.15,1.09-2.46,4.84-3.4c-0.493-1.255-0.744-2.592-0.74-3.94c-0.26-6.74,3.9-12.27,8.2-12.31S83.42,114.21,83.48,121z
	 M76.85,117.47c1.209-0.039,2.157-1.051,2.118-2.259c-0.039-1.209-1.051-2.157-2.259-2.118c-1.2,0.039-2.146,1.037-2.119,2.238
	c0.054,1.198,1.062,2.13,2.26,2.09L76.85,117.47z"/>
<ellipse transform="matrix(0.9997 -0.0257 0.0257 0.9997 -2.9311 2.0079)" style="fill:#EDF6FA;" cx="76.791" cy="115.242" rx="2.2" ry="2.2"/>
<g style="opacity:0.8;">
	<path style="fill:#EBD599;" d="M50.69,75.15c0,0,0.67-8.69,2-12c0.7-1.72,5-2.81,8.28-3.59c3.28-0.78,8.51-2.34,9.52,2.26
		c0.643,3.358,1.915,6.565,3.75,9.45l-1.4-19L50.3,57.74l-1.48,16.79l0.7,1.33l1.17-0.7"/>
	<path style="fill:#EBD599;" d="M164.85,75.15c0,0-0.67-8.69-2-12c-0.7-1.72-5-2.81-8.27-3.59S146,57.2,145,61.81
		c-0.64,3.359-1.913,6.566-3.75,9.45l1.41-19l22.56,5.46l1.48,16.79l-0.7,1.33l-1.17-0.7"/>
</g>
<path style="opacity:0.75;fill:#EBD599;enable-background:new    ;" d="M133,18.38c0,0-0.6,45.49-11.22,45.49H94.11
	c-10.63,0-11.48-45.47-11.48-45.47l-5.22,15.44L77.49,55l3.71,3l1.68,9.1l2.36,5.31l45.48,0.08l2.1-3.79l1.77-6.4l0.25-4l5-14.34
	L133,18.38z"/>
<path style="opacity:0.75;fill:#EBD599;enable-background:new    ;" d="M166.43,60.79c0,0,2.19,15.69,8,18.52l0,0l-8.1-2.44
	L166.43,60.79z"/>
<path style="opacity:0.75;fill:#EBD599;enable-background:new    ;" d="M48.91,60.79c0,0-2.19,15.69-8,18.52l0,0L49,76.87
	L48.91,60.79z"/>
<path style="fill:#2D3136;" d="M168,76.8c2.776,0.822,5.458,1.934,8,3.32c-1.346-0.513-2.726-0.934-4.13-1.26
	c-1.39-0.36-2.79-0.65-4.2-0.92c-2.82-0.53-5.65-1-8.5-1.33s-5.69-0.68-8.55-0.92s-5.71-0.48-8.57-0.65
	c-11.45-0.7-22.92-0.88-34.41-0.89s-23,0.22-34.41,0.9c-2.86,0.17-5.71,0.41-8.57,0.65s-5.71,0.55-8.55,0.92s-5.68,0.8-8.5,1.33
	c-1.407,0.267-2.81,0.573-4.21,0.92c-1.403,0.327-2.783,0.747-4.13,1.26c2.542-1.389,5.224-2.505,8-3.33l0.7-0.21
	c0-0.06,0-0.11,0-0.18c-0.633-6.219-0.394-12.497,0.71-18.65c0.088-0.527,0.481-0.952,1-1.08l2.92-0.83
	c0.63-22.62,10-33.27,10.24-33.59c-8.33,13.4-8.25,29.29-8.11,33l18.13-5.15l0,0h0.23h0.07c0.1-0.013,0.2-0.013,0.3,0h0.05
	l0.22,0.08h0.09L74,50.3l0,0l0,0h0.05c0,0,0.49,0.49,1.26,1.21c-0.18-6,0.1-23.11,8.26-37.31c-0.17,0.5-6.65,19.43-4.42,40.65
	c0.72,0.58,1.49,1.15,2.23,1.65c0.358,0.248,0.574,0.654,0.58,1.09c0.224,4.416,1.344,8.74,3.29,12.71
	c0.04,0.087,0.074,0.178,0.1,0.27c7.43-0.5,14.88-0.71,22.31-0.71s14.88,0.22,22.31,0.73c0.026-0.1,0.063-0.198,0.11-0.29
	c1.883-3.943,2.951-8.225,3.14-12.59c0.01-0.437,0.23-0.843,0.59-1.09c0.74-0.5,1.49-1.07,2.22-1.65
	c2.23-21.22-4.24-40.15-4.41-40.65c8.15,14.2,8.44,31.34,8.26,37.31c0.76-0.72,1.25-1.19,1.26-1.21h0.05l0,0l0,0l0.18-0.12h0.08
	l0.24-0.08l0,0c0.1-0.013,0.2-0.013,0.3,0h0.07h0.23l0,0l18.13,5.15c0.15-3.7,0.22-19.59-8.1-33c0.29,0.33,9.61,11,10.24,33.59
	l2.92,0.83c0.518,0.131,0.909,0.554,1,1.08c1.101,6.154,1.34,12.431,0.71,18.65c0.003,0.06,0.003,0.12,0,0.18L168,76.8z M164.7,75.8
	c0.509-5.603,0.308-11.248-0.6-16.8l-20.52-5.8c0.353,6.118-0.224,12.255-1.71,18.2c-0.026,0.089-0.059,0.176-0.1,0.26l0.61,0.06
	c5.774,0.651,11.512,1.595,17.19,2.83c1.71,0.4,3.43,0.82,5.12,1.28L164.7,75.8z M139.29,70.65c1.33-5.343,1.885-10.849,1.65-16.35
	c-1.587,1.471-3.256,2.85-5,4.13c-0.26,4.261-1.294,8.439-3.05,12.33c2.15,0.17,4.3,0.37,6.45,0.59
	c-0.077-0.215-0.098-0.445-0.06-0.67L139.29,70.65z M82.51,70.75c-1.739-3.891-2.756-8.065-3-12.32c-1.745-1.276-3.414-2.651-5-4.12
	c-0.233,5.501,0.323,11.007,1.65,16.35c0.061,0.226,0.061,0.464,0,0.69c2.08-0.233,4.193-0.423,6.34-0.57L82.51,70.75z M73.58,71.61
	c-0.04-0.08-0.074-0.164-0.1-0.25c-1.484-5.946-2.06-12.082-1.71-18.2L51.24,59c-0.906,5.552-1.107,11.197-0.6,16.8
	c1.7-0.46,3.41-0.887,5.13-1.28c2.83-0.63,5.69-1.15,8.56-1.64c2.87-0.49,5.75-0.84,8.63-1.19L73.58,71.61z"/>
<g id="_Group_">
	<path style="fill:#2D3136;" d="M129.29,19v17h-12.07v-5h-2.72v23h4.11v12.86H97.5V54h4.09V31h-2.7v5H86.83V19H129.29z
		 M125.66,32.41v-9.82H90.44v9.79h4.82v-5h10v30.25h-4.1v5.61H115v-5.61h-4.1V27.41h10v5H125.66z"/>
	<polygon style="fill:#CB3349;" points="125.67,22.59 125.67,32.38 120.85,32.38 120.85,27.41 110.89,27.41 110.89,57.63 
		114.99,57.63 114.99,63.24 101.12,63.24 101.12,57.63 105.22,57.63 105.22,27.41 95.26,27.41 95.26,32.38 90.44,32.38 90.44,22.59 
		110.89,22.59 120.41,22.59 	"/>
</g>
<path style="fill:#656C67;" d="M30.69,93.12c1.76-0.4,4.14-0.91,7.05-1.47c-1.79,1.22-3.91,2.75-6.22,4.6L30.69,93.12z"/>
<path style="fill:#C7B39A;" d="M95.11,139.78c0,0,0.49,3.16-3.94,4.52s-32.48,9.7-35.68,9.26s-11.32-5.87-11.32-5.87l-2-7l12,7.49
	L95.11,139.78z"/>
<path style="fill:#C7B39A;" d="M120.24,139.17c0,0-0.35,3.18,4.13,4.35s32.87,8.29,36,7.7s11.05-6.36,11.05-6.36l1.66-7.08l-11,6.59
	L120.24,139.17z"/>
<path style="fill:#C7B39A;" d="M28.41,134c0,0,3.89,7.77,10.17,5.08l4.49,1.65L42.62,144l-9.42,1.2l-2.54-1.49L28.41,134z"/>
<path style="fill:#C7B39A;" d="M187.55,131.82c0,0-6.35,8.12-12.63,5.42l-2,1.3l0.45,3.29l9.42,1.2l2.54-1.49L187.55,131.82z"/>
<path style="fill:#C7B39A;" d="M89.28,192.9c0,0,23,11.61,49.11-4.19l-8.37-0.57c0,0-18.27,7.23-32.74,3.24L89.28,192.9z"/>
<path style="fill:#2D3136;" d="M112.63,171.51l1.59,1.9c0,0,3.58,4.26,7.91,8.55c2.715,2.785,6.451,4.339,10.34,4.3
	c1.429-0.006,2.852-0.18,4.24-0.52l4.29-1c5.38-1.29,11.48-2.75,14.44-3.58c0.59-0.17,1.24-0.32,1.93-0.47
	c3.93-0.91,9.33-2.16,12.19-7.89c2.15-4.3,5-9.87,7.2-14c-1.86,0.86-3.82,1.79-5.2,2.52c-2.677,1.24-5.613,1.817-8.56,1.68
	c-2.15,0-4.27-0.18-6.6-0.39c-4.68-0.43-12.59-1.36-12.67-1.37l-0.61-0.07l-0.48-0.38c-0.07-0.05-7-5.57-12.61-10l-0.62-0.51
	c-0.59-0.5-0.59-0.5-0.94-0.5c-1.8,0-7,1.62-18.46,5.17l-0.7,0.22l-0.69-0.26c-5.355-1.817-10.966-2.766-16.62-2.81
	c-0.74,0-1.47,0-2.18,0.06c-0.9,0-6,2.45-12.43,12.68l-0.42,0.66l-0.74,0.24c-0.11,0-11.24,3.63-23,7l-0.77,0.22l-0.72-0.34
	l-9.09-4.19c2.4,3.54,5.46,8,8.16,11.42c4.71,6.07,10.65,11.67,22,11.67c1.504-0.002,3.006-0.089,4.5-0.26
	c11.58-1.31,14.56-1.84,16.17-2.12c0.54-0.09,1-0.17,1.52-0.24c0.09,0,9.57-1.24,12.23-7.21c2.74-6.13,3.3-7.6,3.32-7.65l1-2.58
	c0.049-0.311,0.158-0.61,0.32-0.88l0,0l0,0C112.162,170.856,112.417,171.169,112.63,171.51z M40.5,55.71c-2.52,1-5,2.06-7.46,3.21
	s-4.86,2.32-7.16,3.66c-2.116,1.18-4.124,2.546-6,4.08c-0.08,0.46-0.15,1-0.21,1.42c-0.08,0.67-0.16,1.34-0.21,2
	c-0.12,1.35-0.17,2.7-0.18,4.06c-0.018,2.712,0.149,5.421,0.5,8.11c0.345,2.7,0.876,5.373,1.59,8c0.36,1.29,0.77,2.57,1.24,3.8
	c0.23,0.62,0.49,1.23,0.76,1.82c0.13,0.29,0.27,0.58,0.41,0.86L24,97l0.6,0.3l1.21,0.57c0.67,0.31,1.6,0.75,2.37,1.09l0.12-0.11
	l-2.23-8.51c0.47-0.13,4.72-1.23,12-2.62c-0.59-0.11-1.19-0.24-1.78-0.38c-1.668-0.405-3.305-0.926-4.9-1.56
	c-0.79-0.33-1.562-0.704-2.31-1.12c-0.746-0.405-1.422-0.928-2-1.55c8,2.62,24.64,1.43,39.4-0.09
	c13.496-1.454,27.056-2.228,40.63-2.32c13.58,0.083,27.147,0.851,40.65,2.3c14.77,1.52,31.37,2.71,39.41,0.09
	c-0.578,0.622-1.254,1.145-2,1.55c-0.749,0.416-1.52,0.79-2.31,1.12c-1.595,0.633-3.232,1.154-4.9,1.56l-0.74,0.17
	c8,1.49,12.69,2.7,13.19,2.83l-2.14,8.11l1.29-0.57l1.21-0.57l0.61-0.3l0.17-0.33c0.14-0.28,0.28-0.57,0.42-0.86
	c0.27-0.59,0.53-1.2,0.77-1.82c0.47-1.23,0.88-2.51,1.24-3.8c0.72-2.626,1.255-5.299,1.6-8c0.352-2.689,0.52-5.398,0.5-8.11
	c0-1.36-0.06-2.71-0.18-4.06c-0.06-0.67-0.13-1.34-0.21-2c-0.06-0.47-0.13-1-0.21-1.42c-1.876-1.534-3.884-2.9-6-4.08
	c-2.3-1.34-4.7-2.54-7.16-3.66s-4.94-2.19-7.46-3.21c-1.26-0.51-2.53-1-3.8-1.48s-2.55-1-3.84-1.42c2.7,0.44,5.37,1.06,8,1.74
	c1.72,0.45,3.44,0.95,5.14,1.48c-12.12-31.59-41.08-52.2-72.69-52.2S47.09,24.37,35,56c1.7-0.53,3.42-1,5.14-1.48
	c2.65-0.68,5.32-1.29,8-1.74c-1.29,0.47-2.57,0.93-3.84,1.42S41.76,55.2,40.5,55.71z M199.93,74c0.149,2.912,0.062,5.832-0.26,8.73
	c-0.313,2.905-0.854,5.78-1.62,8.6c-0.4,1.41-0.86,2.81-1.4,4.2c-0.27,0.69-0.57,1.38-0.89,2.07c-0.16,0.34-0.33,0.68-0.52,1
	l-0.28,0.51c-0.1,0.19-0.19,0.33-0.35,0.57l-0.29,0.46l-0.46,0.24c-0.49,0.25-0.9,0.44-1.34,0.65l-1.3,0.58
	c-0.87,0.37-1.74,0.72-2.62,1.07l-1.66,0.67l-1.44,5.49l-1.28-0.32l-0.08,0.57c2.006,0.999,3.94,2.135,5.79,3.4
	c2.15,1.78,2.3,4.59,1.82,9.84c-0.496,4.307-1.292,8.574-2.38,12.77c-2.14,8.3-3.28,9.27-4.75,9.65c-0.982,0.244-1.989,0.371-3,0.38
	c-2.485,0.11-4.975-0.038-7.43-0.44c-1.306,4.474-3.002,8.824-5.07,13l0.43-0.21c3.72-2,10.86-5.06,11.16-5.2l5.64-2.45l-2.89,5.43
	c-0.07,0.12-6.26,11.77-10.06,19.38s-10.84,9.18-15.07,10.15c-0.64,0.15-1.24,0.29-1.73,0.43c-3,0.85-9.18,2.32-14.6,3.62h-0.2
	c-3.485,2.151-7.169,3.962-11,5.41c-14.119,5.345-29.699,5.377-43.84,0.09c-2.26,0.29-5.23,0.65-9.19,1.1
	c-1.66,0.189-3.329,0.286-5,0.29c-13.26,0-20.29-6.74-25.42-13.33c-5.49-7.06-12.21-17.55-12.5-18L31,158.43l6.58,3
	c3.15,1.42,12.52,5.76,15.21,7l0.64-0.19c-4.628-6.633-8.232-13.925-10.69-21.63c-2.674,0.747-5.434,1.144-8.21,1.18
	c-0.833,0.015-1.664-0.062-2.48-0.23c-1.47-0.34-3.15-1.75-5.43-9.79c-1.17-4.079-2.046-8.236-2.62-12.44
	c-0.57-5.12-0.47-7.86,1.66-9.64c2.085-1.411,4.259-2.683,6.51-3.81L32,110.31c-7.807,4.491-15.223,9.629-22.17,15.36L0,134.3l7-11
	c5.005-7.841,11.005-15.001,17.85-21.3l-0.71-0.29l-1.3-0.58c-0.44-0.21-0.85-0.4-1.34-0.65L21,100.2l-0.3-0.46
	c-0.17-0.25-0.24-0.39-0.35-0.57l-0.29-0.51c-0.18-0.35-0.36-0.68-0.52-1c-0.33-0.69-0.62-1.38-0.89-2.07c-0.54-1.39-1-2.78-1.4-4.2
	c-1.52-5.665-2.141-11.533-1.84-17.39c0.08-1.46,0.22-2.91,0.42-4.35c0.1-0.72,0.21-1.45,0.36-2.17s0.3-1.42,0.52-2.22l0.16-0.56
	l0.4-0.32c2.258-1.724,4.699-3.193,7.28-4.38c2.07-1,4.18-1.83,6.31-2.62C36.8,40.92,47,26.3,60.45,16.1
	c27.817-21.476,66.623-21.476,94.44,0c13.43,10.19,23.65,24.82,29.59,41.31c2.13,0.79,4.24,1.64,6.32,2.62
	c2.58,1.184,5.022,2.65,7.28,4.37l0.4,0.32l0.16,0.56c0.23,0.8,0.37,1.49,0.52,2.22s0.26,1.44,0.36,2.17
	C199.71,71.12,199.86,72.57,199.93,74z M187.93,122c0.46-5.05,0.06-6.14-0.46-6.55c-1.261-0.856-2.574-1.635-3.93-2.33l-2.78,19.46
	c-0.055,0.38-0.265,0.72-0.58,0.94l-4,2.78c-0.32,1.59-0.43,2.35-0.82,3.9c2.541,0.613,5.165,0.816,7.77,0.6
	c1.65-1.69,4.25-12.55,4.8-18.74V122z M182.77,104.35l3-11.29c-4.32-1-12.27-2.61-23.1-4.15c-5.472,3.86-11.35,7.11-17.53,9.69
	c12.646,1.201,25.211,3.141,37.63,5.81L182.77,104.35z M178.09,131.59l3.39-23.59c-1.51-0.33-3.43-0.73-5.73-1.17l-3.06,21.42
	c-0.055,0.378-0.261,0.717-0.57,0.94l-11.47,8c-0.277,0.193-0.615,0.278-0.95,0.24l-34.57-3.93c-0.56-0.064-1.026-0.458-1.18-1
	l-6.23-20.5c-3.168-0.845-6.423-1.325-9.7-1.43c-3.281,0.105-6.539,0.584-9.71,1.43l-6.23,20.5c-0.109,0.353-0.353,0.648-0.68,0.82
	c-0.107,0.059-0.221,0.102-0.34,0.13l-34.57,7.69c-0.103,0.011-0.207,0.011-0.31,0c-0.283,0.001-0.559-0.087-0.79-0.25l-11.47-8
	c-0.328-0.234-0.54-0.599-0.58-1l-3.09-25.07c-1.28,0.25-2.44,0.49-3.48,0.7l-2.17,1.28l3.28,26.57L54.54,147l42-9.35l6.21-20.45
	c0.144-0.521,0.577-0.911,1.11-1c2.716-0.509,5.504-0.509,8.22,0c0.534,0.087,0.968,0.478,1.11,1l6.37,21l42.32,4.8L178.09,131.59z
	 M170,127.24l3-20.95c-11.881-2.129-23.863-3.648-35.9-4.55c-8.36,2.916-16.994,4.976-25.77,6.15l-0.8,0.06
	c2.928,0.284,5.826,0.823,8.66,1.61c0.449,0.133,0.802,0.482,0.94,0.93l6.19,20.37l33.14,3.76L170,127.24z M172.3,139.09l-1.4,1
	l-3.78,2.65l-4.1,2.87c-0.292,0.202-0.648,0.288-1,0.24l-40.75-4.63l-3-0.34c-0.556-0.067-1.017-0.461-1.17-1l-6.38-21
	c-0.931-0.135-1.87-0.209-2.81-0.22c-0.944,0.01-1.886,0.084-2.82,0.22L99,139.27c-0.14,0.472-0.521,0.835-1,0.95l-43.44,9.67h-0.31
	c-0.286,0.002-0.566-0.085-0.8-0.25l-1.58-1.1l-4.73-3.31l0,0l-1.91-1.34c0.13,0.43,0.29,0.85,0.44,1.27l0,0
	c2.8,7.801,6.66,15.18,11.47,21.93c8-2.35,14.86-4.54,17.06-5.23c4.49-6.92,10.88-13.78,15.42-14c0.78,0,1.6-0.06,2.4-0.06
	c2.109,0.006,4.216,0.136,6.31,0.39c-1.148-1.105-1.936-2.53-2.26-4.09c0,0,5.79,4.53,13.17,3.58c4.414-0.553,8.578-2.357,12-5.2
	c-0.203,2.231-1.391,4.255-3.24,5.52c6.18-1.87,8.74-2.51,10.49-2.51c1.395-0.021,2.739,0.528,3.72,1.52l0.51,0.42
	c4.75,3.74,10.47,8.28,12.14,9.61c1.94,0.23,8.07,0.93,11.94,1.28c2.23,0.2,4.24,0.37,6.22,0.37c0.64,0,1.23,0,1.8-0.06
	c2.747-5.33,5.009-10.896,6.76-16.63c0.26-1,0.52-1.95,0.75-2.92L172.3,139.09z M157.3,87.5L157.3,87.5
	c-3.27-0.24-6.54-0.47-9.83-0.65c-4.553-0.26-9.11-0.483-13.67-0.67c-0.26,0.39-0.8,1.17-1.57,2.22
	c-3.978,5.427-8.576,10.37-13.7,14.73c8.93-1.6,24.41-5.56,37.8-14.9L157.3,87.5z M127.42,88.43c0.38-0.47,0.73-0.93,1-1.34
	c-3.28,0.33-6.51,0.81-9.67,1.41c-9.982,1.936-19.737,4.899-29.11,8.84c5.89-0.29,12.08-0.46,18.54-0.46c3.91,0,7.71,0.07,11.4,0.18
	c2.804-2.704,5.424-5.594,7.84-8.65L127.42,88.43z M131,190.5c-4.502-0.332-8.73-2.286-11.9-5.5l-0.5-0.51
	c-1.612,0.324-3.242,0.558-4.88,0.7c-0.7,0-1.36,0.09-2.09,0.09h-1.5c-4.4,6.54-14.16,7.81-14.6,7.87s-0.73,0.1-1.19,0.19
	c5.353,1.506,10.92,2.105,16.47,1.77C117.741,194.65,124.556,193.094,131,190.5z M113.6,183c1.06-0.08,2.12-0.22,3.18-0.38
	c-1.38-1.44-2.6-2.77-3.57-3.86c-0.47,1.08-1.1,2.51-1.92,4.34h0.24C112.2,183.14,112.92,183.07,113.6,183z M110.25,104.37
	c1.832-1.117,3.586-2.356,5.25-3.71c-2.39,0-4.81-0.07-7.28-0.07c-10.14,0-19.61,0.42-28.19,1.06c-4.816,2.307-9.491,4.898-14,7.76
	L57.77,115l5.68-8.15c0.94-1.35,1.93-2.64,3-3.86c-9.59,1.01-17.53,2.29-23.45,3.38L46,131l10.45,7.32l33.18-7.38l6.21-20.46
	c0.103-0.333,0.328-0.615,0.63-0.79c0.099-0.063,0.207-0.11,0.32-0.14c2.409-0.659,4.862-1.147,7.34-1.46L110.25,104.37z
	 M114.07,85.58c-2.307-0.033-4.617-0.053-6.93-0.06l0,0c-3.387,0-6.783,0.037-10.19,0.11l-6.27,3h-0.09
	c-6.177,3.183-11.874,7.223-16.92,12c9.327-4.916,19.085-8.97,29.15-12.11c3.59-1.03,7.36-2.05,11.25-2.9V85.58z M70.25,98.76
	c2.96-2.93,6.161-5.606,9.57-8c-10.714,2.534-21.144,6.146-31.13,10.78C54.68,100.6,61.93,99.6,70.25,98.76z M72.41,88.81
	c3.82-1.07,7.77-2,11.81-2.8c-5.8,0.213-11.597,0.483-17.39,0.81c-3.37,0.19-6.72,0.41-10.06,0.67c-1.68,0.13-3.35,0.26-5,0.44
	l-1.42,0.16C46,90.71,29.21,101.23,17.71,115C28.89,107.22,48.36,95.54,72.41,88.81z M41.56,143c-0.22-0.69-0.42-1.4-0.62-2.1
	l-5.16-3.61c-0.333-0.231-0.549-0.597-0.59-1l-2.52-20.45c-1.584,0.809-3.117,1.714-4.59,2.71c-0.5,0.41-0.87,1.46-0.34,6.33
	c0.67,6,3.71,17.33,5.35,19C35.06,144.24,39.42,143.64,41.56,143z M37.74,91.65c-2.92,0.56-5.29,1.07-7.05,1.47l0.83,3.13
	C33.84,94.4,36,92.87,37.74,91.65z"/>
</svg>
